<?xml version="1.0" encoding="UTF-8"?>
<svg xmlns="http://www.w3.org/2000/svg" viewBox="0 0 80 80">
      <g fill="current" fillRule="evenodd" strokeWidth="0.312">
        <path
          d="M54.962 37.281l17.137-10.262 7.678 14.835c1.855 8.105-8.309 11.08-16.47 10.596l-8.346-15.169z"
          transform="matrix(.96875 0 0 .98751 1.25 -.25)"
        ></path>
        <path
          d="M51.068 47.877l-9.014 15.95L51.068 80l.223-6.47h8.235c3.004.26 6.899-1.71 8.346-4.572L78.444 49.55c-3.487 3.457-7.97 4.35-13.131 4.35h-13.91l-.334-6.023zM30.928 28.212L13.659 18.175l9.213-13.929c6.17-5.56 13.698 1.903 17.237 9.29l-9.18 14.676z"
          transform="matrix(.96875 0 0 .98751 1.25 -.25)"
        ></path>
        <path
          d="M42.062 26.482l18.288.157 9.732-15.749-5.75 2.945-3.998-7.216c-1.231-2.76-4.84-5.216-8.04-5.094l-22.061.156c4.709 1.377 7.663 4.873 10.168 9.395l6.752 12.19-5.092 3.216zM.444 27.381l5.35 4.101L.76 40.947c-2.518 4.364 1.807 8.615 4.564 10.095 2.713 1.456 6.924 1.63 10.859 1.577l7.082-11.357 5.35 2.84-9.285-16.879-18.885.158z"
          transform="matrix(.96875 0 0 .98751 1.25 -.25)"
        ></path>
        <path
          d="M1.23 49.307L12.72 70.129c2.308 2.892 6.662 3.575 11.174 3.47H36.01V53.881l-22.977-.157c-3.567.21-8.236-.526-11.803-4.417z"
          transform="matrix(.96875 0 0 .98751 1.25 -.25)"
        ></path>
      </g>
    </svg>